<svg width="94" height="70" viewBox="0 0 94 70" fill="none" xmlns="http://www.w3.org/2000/svg">
<path d="M58.295 42.7971C55.648 42.7971 52.5871 42.8571 50.2581 44.2351C49.8693 44.4376 49.5336 44.7288 49.2782 45.0851C49.0228 45.4415 48.855 45.8529 48.7881 46.2861L48.641 46.1421C50.62 46.1801 52.606 46.1421 54.583 46.0311C56.817 45.8611 64.026 45.5161 64.598 42.9841C65.066 41.8111 64.998 40.7111 63.738 40.1461C61.426 39.1351 57.5591 39.5461 55.0381 39.7841C52.0997 39.9511 49.2482 40.8426 46.738 42.3791C45.6286 43.0977 44.6758 44.0331 43.9369 45.1291C43.198 46.2251 42.6881 47.4592 42.438 48.7571C42.3965 48.9828 42.3698 49.211 42.358 49.4401L41.941 49.0601L72.7411 45.3031L72.321 45.9601C71.5663 44.0544 70.3199 42.3826 68.709 41.1151C63.8355 37.0866 57.5683 35.1458 51.271 35.7151C50.278 35.8354 49.3133 36.126 48.4191 36.5741C45.7167 38.1128 43.4241 40.2791 41.735 42.8901C39.3505 46.3588 37.4026 50.108 35.9351 54.0531L35.2531 53.1371C42.6321 52.6781 50.016 52.1171 57.375 51.4071C63.7996 50.881 70.1904 50.001 76.5181 48.7711C77.3817 48.582 78.2314 48.3337 79.061 48.0281C79.4009 47.9144 79.7148 47.7346 79.985 47.4991C80.8265 46.5558 81.4779 45.4586 81.9031 44.2681C82.566 42.5864 83.1063 40.8589 83.52 39.0991C85.679 29.8641 87.004 15.6991 83.755 6.74412C83.2324 5.15989 82.2496 3.76731 80.932 2.74412C79.701 1.97012 77.979 1.48912 76.683 2.29612C71.092 5.99112 72.3261 25.8111 73.1331 32.1471C73.4531 34.2151 73.9121 36.5961 75.3921 38.1211C76.6481 39.3851 78.239 38.7701 79.218 37.4331C79.9683 36.3829 80.4105 35.1441 80.495 33.8561L80.6221 32.4751C80.7851 30.6361 80.9221 28.7991 80.9611 26.9651C80.9781 26.0491 80.969 25.1331 80.915 24.2251C80.889 22.8854 80.6115 21.5624 80.097 20.3251C79.9242 19.9534 79.6661 19.6276 79.344 19.3741C79.0112 19.1542 78.6196 19.0403 78.2208 19.0474C77.822 19.0546 77.4347 19.1824 77.11 19.4141C75.757 20.4561 75.579 22.7001 75.483 24.3081C75.4252 26.15 75.5387 27.9933 75.822 29.8141L75.6381 29.8481C75.4601 28.9341 75.328 28.0151 75.23 27.0901C75.1291 26.1629 75.0787 25.2308 75.079 24.2981C75.027 22.8681 75.2818 21.4435 75.826 20.1201C76.0395 19.6581 76.3584 19.2525 76.7571 18.9361C77.1814 18.6137 77.6945 18.4295 78.2269 18.4084C78.7594 18.3873 79.2855 18.5303 79.734 18.8181C80.5175 19.4656 81.0592 20.359 81.271 21.3531C81.7136 23.192 81.9174 25.0802 81.8771 26.9711C81.8871 28.8411 81.791 30.7021 81.677 32.5551C81.6493 33.51 81.549 34.4614 81.3771 35.4011C81.0789 36.91 80.2749 38.272 79.098 39.2621C77.034 40.8621 74.77 39.9331 73.52 37.8621C71.757 34.9451 71.5831 31.4621 71.2311 28.1711C70.6511 21.0711 70.0381 9.31212 73.5431 3.04312C75.4831 -0.307876 78.748 -0.820877 81.973 1.15712C90.965 7.19712 87.488 36.0651 83.542 44.9461C83.0145 46.3728 82.2013 47.6768 81.1521 48.7781C80.7236 49.1537 80.2259 49.4421 79.687 49.6271C77.8763 50.2297 76.0166 50.6737 74.129 50.9541C61.283 52.9661 48.294 53.7021 35.329 54.5001L34.281 54.5581L34.6471 53.5841C36.1829 49.5354 38.2144 45.6924 40.6951 42.1431C43.2261 38.6711 46.619 35.0561 51.139 34.5301C57.749 33.9662 64.3132 36.0437 69.395 40.3081C71.1428 41.7072 72.4843 43.5486 73.28 45.6411L73.472 46.2281L72.86 46.2971L42.0271 49.7971L41.5911 49.8461L41.6111 49.4171C41.8146 47.341 42.6717 45.383 44.0591 43.8251C46.7661 40.7071 51.016 39.5251 54.979 39.1971C57.395 39.0021 63.896 38.2671 65.155 40.7861C65.299 41.1666 65.3635 41.5726 65.3446 41.979C65.3257 42.3854 65.2238 42.7836 65.045 43.1491C64.9583 43.4029 64.8408 43.645 64.6951 43.8701C64.3619 44.2911 63.933 44.6264 63.4441 44.8481C62.5212 45.2688 61.5488 45.5712 60.55 45.7481C56.611 46.3873 52.6166 46.6199 48.63 46.4421H48.4821C48.5179 45.9287 48.6868 45.4335 48.9723 45.0053C49.2578 44.5771 49.6499 44.2307 50.11 44.0001C50.9262 43.528 51.8148 43.1942 52.74 43.0121C54.5705 42.6607 56.4361 42.5264 58.2981 42.6121L58.295 42.7971Z" fill="#E6EEF7"/>
<path d="M36.337 26.4601C38.984 26.4601 42.045 26.4001 44.374 25.0221C44.7627 24.8196 45.0984 24.5284 45.3536 24.1721C45.6088 23.8158 45.7765 23.4043 45.8431 22.9711L45.991 23.1151C44.012 23.0771 42.026 23.1151 40.049 23.2261C37.815 23.3961 30.606 23.7411 30.033 26.2731C29.566 27.4461 29.633 28.5471 30.894 29.1111C33.206 30.1221 37.0731 29.7111 39.5941 29.4731C42.5324 29.3061 45.3838 28.4146 47.894 26.8781C49.0033 26.1593 49.956 25.2238 50.6949 24.1279C51.4338 23.0319 51.9437 21.7979 52.194 20.5001C52.2351 20.2743 52.2617 20.0462 52.274 19.8171L52.691 20.1971L21.891 23.9541L22.3121 23.2971C23.0668 25.2028 24.3131 26.8746 25.924 28.1421C30.7975 32.1706 37.0647 34.1113 43.362 33.5421C44.355 33.4218 45.3198 33.1312 46.214 32.6831C48.9169 31.1447 51.2098 28.9783 52.899 26.3671C55.2834 22.8984 57.2315 19.1492 58.699 15.2041L59.381 16.1201C52.003 16.5791 44.618 17.1401 37.258 17.8501C30.8337 18.3762 24.4434 19.2562 18.116 20.4861C17.2523 20.6752 16.4027 20.9235 15.5731 21.2291C15.2332 21.3428 14.9191 21.5226 14.649 21.7581C13.8076 22.7014 13.1566 23.7985 12.732 24.9891C12.069 26.6708 11.5286 28.3983 11.115 30.1581C8.95605 39.3931 7.63006 53.5581 10.8801 62.5131C11.4027 64.0973 12.3855 65.4899 13.7031 66.5131C14.9341 67.2871 16.656 67.7681 17.952 66.9611C23.543 63.2661 22.309 43.4461 21.501 37.1101C21.182 35.0421 20.723 32.6611 19.243 31.1361C17.988 29.8721 16.396 30.4871 15.418 31.8241C14.6681 32.8746 14.2257 34.1132 14.1401 35.4011L14.014 36.7821C13.851 38.6211 13.714 40.4581 13.675 42.2921C13.658 43.2081 13.667 44.1241 13.721 45.0321C13.7467 46.3719 14.0241 47.6949 14.539 48.9321C14.7117 49.3039 14.9697 49.6297 15.292 49.8831C15.6247 50.1029 16.0161 50.2168 16.4147 50.2097C16.8134 50.2025 17.2004 50.0747 17.525 49.8431C18.878 48.8011 19.056 46.5571 19.152 44.9491C19.2104 43.1072 19.0969 41.2639 18.813 39.4431L18.998 39.4091C19.176 40.3231 19.3081 41.2421 19.4061 42.1681C19.5074 43.0949 19.5578 44.0267 19.5571 44.9591C19.609 46.389 19.3546 47.8135 18.811 49.1371C18.5966 49.5989 18.2775 50.0043 17.879 50.3211C17.4546 50.6435 16.9416 50.8277 16.4091 50.8488C15.8766 50.8699 15.3505 50.7269 14.902 50.4391C14.1182 49.7916 13.5763 48.8983 13.3641 47.9041C12.9214 46.0653 12.7179 44.177 12.759 42.2861C12.749 40.4161 12.845 38.5551 12.959 36.7021C12.9867 35.7472 13.0869 34.7958 13.259 33.8561C13.5575 32.3476 14.361 30.9858 15.537 29.9951C17.602 28.3951 19.865 29.3241 21.115 31.3951C22.877 34.3121 23.052 37.7951 23.403 41.0861C23.985 48.1861 24.597 59.9461 21.092 66.2141C19.152 69.5651 15.892 70.0781 12.662 68.1001C3.67004 62.0601 7.14707 33.1921 11.0931 24.3111C11.6205 22.8843 12.4337 21.5803 13.483 20.4791C13.9114 20.1034 14.4091 19.815 14.9481 19.6301C16.7588 19.0275 18.6184 18.5835 20.506 18.3031C33.353 16.2911 46.342 15.5551 59.306 14.7571L60.3541 14.7001L59.988 15.6731C58.4516 19.7218 56.4198 23.5647 53.939 27.1141C51.408 30.5861 48.0151 34.2011 43.4951 34.7271C36.8851 35.291 30.3209 33.2135 25.2391 28.9491C23.491 27.5503 22.1495 25.7088 21.3541 23.6161L21.162 23.0291L21.774 22.9601L52.607 19.4601L53.043 19.4111L53.024 19.8401C52.8205 21.9164 51.9629 23.8745 50.575 25.4321C47.869 28.5501 43.619 29.7321 39.655 30.0601C37.239 30.2551 30.7381 30.9901 29.4791 28.4711C29.3351 28.0905 29.2706 27.6846 29.2895 27.2782C29.3084 26.8718 29.4104 26.4736 29.589 26.1081C29.6757 25.8543 29.7932 25.6122 29.939 25.3871C30.2713 24.9656 30.7 24.6302 31.189 24.4091C32.1116 23.9885 33.0836 23.6861 34.082 23.5091C38.021 22.8699 42.0154 22.6374 46.002 22.8151H46.15C46.1138 23.3284 45.9446 23.8234 45.659 24.2514C45.3734 24.6794 44.9812 25.0257 44.5211 25.2561C43.7049 25.7283 42.8162 26.0622 41.891 26.2441C40.0606 26.5956 38.195 26.7298 36.3331 26.6441L36.337 26.4601Z" fill="#E6EEF7"/>
</svg>
