<svg width="132" height="25" viewBox="0 0 132 25" fill="none" xmlns="http://www.w3.org/2000/svg">
<path d="M24.9601 17.764C24.9601 17.764 32.298 19.324 32.342 12.324C32.372 7.73504 25.642 5.91203 21.989 8.03003C17.332 10.73 15.195 21.794 23.412 22.942C32.747 24.242 40.479 14.165 40.479 11.971C40.479 9.77701 32.837 1 23.412 1C17.243 1 11.855 4.75499 8.85703 7.96899L2.86899 3.43903C2.69382 3.2942 2.47935 3.20496 2.25315 3.1828C2.02694 3.16064 1.79928 3.20655 1.59934 3.31464C1.39939 3.42272 1.23631 3.5881 1.13095 3.78949C1.02559 3.99088 0.982802 4.21912 1.00803 4.44501L2.66599 11.971L1.00705 19.497C0.981826 19.7229 1.02462 19.9512 1.12998 20.1526C1.23534 20.354 1.39841 20.5193 1.59836 20.6274C1.79831 20.7355 2.02596 20.7814 2.25217 20.7592C2.47838 20.7371 2.69284 20.6478 2.86801 20.503L8.85605 15.974" stroke="#FEB127" stroke-width="2" stroke-miterlimit="10" stroke-linecap="round"/>
<path d="M69.9601 17.764C69.9601 17.764 77.298 19.324 77.342 12.324C77.372 7.73504 70.642 5.91203 66.989 8.03003C62.332 10.73 60.195 21.794 68.412 22.942C77.747 24.242 85.479 14.165 85.479 11.971C85.479 9.77701 77.837 1 68.412 1C62.243 1 56.855 4.75499 53.857 7.96899L47.869 3.43903C47.6938 3.2942 47.4794 3.20496 47.2531 3.1828C47.0269 3.16064 46.7993 3.20655 46.5993 3.31464C46.3994 3.42272 46.2363 3.5881 46.131 3.78949C46.0256 3.99088 45.9828 4.21912 46.008 4.44501L47.666 11.971L46.0071 19.497C45.9818 19.7229 46.0246 19.9512 46.13 20.1526C46.2353 20.354 46.3984 20.5193 46.5984 20.6274C46.7983 20.7355 47.026 20.7814 47.2522 20.7592C47.4784 20.7371 47.6928 20.6478 47.868 20.503L53.8561 15.974" stroke="#FEB127" stroke-width="2" stroke-miterlimit="10" stroke-linecap="round"/>
<path d="M114.96 17.764C114.96 17.764 122.298 19.324 122.342 12.324C122.372 7.73504 115.642 5.91203 111.989 8.03003C107.332 10.73 105.195 21.794 113.412 22.942C122.747 24.242 130.479 14.165 130.479 11.971C130.479 9.77701 122.837 1 113.412 1C107.243 1 101.855 4.75499 98.857 7.96899L92.869 3.43903C92.6938 3.2942 92.4794 3.20496 92.2531 3.1828C92.0269 3.16064 91.7993 3.20655 91.5993 3.31464C91.3994 3.42272 91.2363 3.5881 91.131 3.78949C91.0256 3.99088 90.9828 4.21912 91.008 4.44501L92.666 11.971L91.0071 19.497C90.9818 19.7229 91.0246 19.9512 91.13 20.1526C91.2353 20.354 91.3984 20.5193 91.5984 20.6274C91.7983 20.7355 92.026 20.7814 92.2522 20.7592C92.4784 20.7371 92.6928 20.6478 92.868 20.503L98.8561 15.974" stroke="#FEB127" stroke-width="2" stroke-miterlimit="10" stroke-linecap="round"/>
</svg>
