<svg width="62" height="28" viewBox="0 0 62 28" fill="none" xmlns="http://www.w3.org/2000/svg">
<path d="M8.117 5.34301C8.117 4.19104 8.57461 3.08626 9.38918 2.27169C10.2037 1.45713 11.3085 0.999512 12.4605 0.999512C13.6125 0.999512 14.7173 1.45713 15.5318 2.27169C16.3464 3.08626 16.804 4.19104 16.804 5.34301V22.287C16.804 23.439 16.3464 24.5438 15.5318 25.3583C14.7173 26.1729 13.6125 26.6305 12.4605 26.6305C11.3085 26.6305 10.2037 26.1729 9.38918 25.3583C8.57461 24.5438 8.117 23.439 8.117 22.287V16.947" stroke="#FEB127" stroke-width="2" stroke-miterlimit="10" stroke-linecap="round"/>
<path d="M8.11699 17C8.11699 17.8771 7.76857 18.7182 7.14839 19.3384C6.52821 19.9586 5.68705 20.307 4.80998 20.307C3.93291 20.307 3.09177 19.9586 2.47159 19.3384C1.85141 18.7182 1.50299 17.8771 1.50299 17V10.63C1.50299 9.75293 1.85141 8.91178 2.47159 8.2916C3.09177 7.67141 3.93291 7.323 4.80998 7.323C5.68705 7.323 6.52821 7.67141 7.14839 8.2916C7.76857 8.91178 8.11699 9.75293 8.11699 10.63" stroke="#FEB127" stroke-width="2" stroke-miterlimit="10" stroke-linecap="round"/>
<path d="M53.821 5.34303C53.8037 4.20248 53.3384 3.1145 52.5258 2.31406C51.7131 1.51361 50.6182 1.06494 49.4775 1.06494C48.3368 1.06494 47.2419 1.51361 46.4292 2.31406C45.6165 3.1145 45.1513 4.20248 45.134 5.34303V22.287C45.1513 23.4276 45.6165 24.5156 46.4292 25.316C47.2419 26.1165 48.3368 26.5651 49.4775 26.5651C50.6182 26.5651 51.7131 26.1165 52.5258 25.316C53.3384 24.5156 53.8037 23.4276 53.821 22.287V16.947" stroke="#FEB127" stroke-width="2" stroke-miterlimit="10" stroke-linecap="round"/>
<path d="M53.821 17C53.821 17.4343 53.9065 17.8643 54.0727 18.2655C54.2389 18.6668 54.4825 19.0313 54.7896 19.3384C55.0967 19.6455 55.4612 19.8891 55.8624 20.0553C56.2637 20.2215 56.6937 20.307 57.128 20.307C57.5622 20.307 57.9923 20.2215 58.3935 20.0553C58.7947 19.8891 59.1593 19.6455 59.4664 19.3384C59.7735 19.0313 60.017 18.6668 60.1832 18.2655C60.3494 17.8643 60.435 17.4343 60.435 17V10.63C60.435 10.1957 60.3494 9.76569 60.1832 9.36446C60.017 8.96324 59.7735 8.59868 59.4664 8.2916C59.1593 7.98451 58.7947 7.74092 58.3935 7.57473C57.9923 7.40854 57.5622 7.323 57.128 7.323C56.6937 7.323 56.2637 7.40854 55.8624 7.57473C55.4612 7.74092 55.0967 7.98451 54.7896 8.2916C54.4825 8.59868 54.2389 8.96324 54.0727 9.36446C53.9065 9.76569 53.821 10.1957 53.821 10.63" stroke="#FEB127" stroke-width="2" stroke-miterlimit="10" stroke-linecap="round"/>
<path d="M16.804 13.8151H45.135" stroke="#FEB127" stroke-width="2" stroke-miterlimit="10" stroke-linecap="round"/>
</svg>
