<svg width="41" height="38" viewBox="0 0 41 38" fill="none" xmlns="http://www.w3.org/2000/svg">
<path d="M0.947998 32.35C4.948 32.35 4.948 36.35 8.948 36.35C12.948 36.35 12.948 32.35 16.948 32.35C20.948 32.35 20.948 36.35 24.948 36.35C28.948 36.35 28.948 32.35 32.948 32.35C36.948 32.35 36.948 36.35 40.948 36.35" stroke="#FEB127" stroke-width="2" stroke-miterlimit="10"/>
<path d="M12.122 4.73206C12.122 7.17606 8.12201 7.17606 8.12201 9.62006C8.12201 12.0641 12.122 12.0651 12.122 14.5091C12.122 16.9531 8.12201 16.9561 8.12201 19.4031C8.12201 21.8501 12.122 21.8511 12.122 24.3031C12.122 26.7551 8.12201 26.7511 8.12201 29.2031" stroke="#FEB127" stroke-width="2" stroke-miterlimit="10"/>
<path d="M22.946 0C22.946 2.444 18.946 2.444 18.946 4.888C18.946 7.332 22.946 7.333 22.946 9.777C22.946 12.221 18.946 12.224 18.946 14.671C18.946 17.118 22.946 17.119 22.946 19.571C22.946 22.023 18.946 22.019 18.946 24.471" stroke="#FEB127" stroke-width="2" stroke-miterlimit="10"/>
<path d="M33.77 4.73206C33.77 7.17606 29.77 7.17606 29.77 9.62006C29.77 12.0641 33.77 12.0651 33.77 14.5091C33.77 16.9531 29.77 16.9561 29.77 19.4031C29.77 21.8501 33.77 21.8511 33.77 24.3031C33.77 26.7551 29.77 26.7511 29.77 29.2031" stroke="#FEB127" stroke-width="2" stroke-miterlimit="10"/>
</svg>
