<svg width="87" height="78" viewBox="0 0 87 78" fill="none" xmlns="http://www.w3.org/2000/svg">
<path d="M17.8962 32.885C17.0477 32.885 16.2183 32.6334 15.5128 32.162C14.8073 31.6906 14.2574 31.0206 13.9327 30.2367C13.608 29.4528 13.5231 28.5902 13.6886 27.7581C13.8541 26.9259 14.2627 26.1615 14.8627 25.5615C15.4627 24.9615 16.2271 24.553 17.0592 24.3874C17.8914 24.2219 18.754 24.3069 19.5379 24.6316C20.3218 24.9563 20.9918 25.5061 21.4632 26.2116C21.9346 26.9171 22.1862 27.7465 22.1862 28.595C22.1835 29.732 21.7307 30.8216 20.9267 31.6256C20.1228 32.4295 19.0331 32.8824 17.8962 32.885V32.885ZM17.8962 26.9C17.5607 26.8992 17.2326 26.998 16.9533 27.1838C16.674 27.3696 16.4561 27.6341 16.3273 27.9438C16.1984 28.2535 16.1643 28.5945 16.2293 28.9236C16.2944 29.2527 16.4556 29.5551 16.6926 29.7925C16.9296 30.0299 17.2317 30.1916 17.5606 30.2572C17.8896 30.3229 18.2307 30.2894 18.5406 30.1611C18.8505 30.0327 19.1154 29.8153 19.3017 29.5364C19.488 29.2574 19.5874 28.9294 19.5872 28.594C19.5859 28.1449 19.4069 27.7145 19.0893 27.3969C18.7717 27.0793 18.3413 26.9003 17.8922 26.899" fill="#FEB127"/>
<path d="M49.1932 32.885C48.3447 32.885 47.5153 32.6334 46.8098 32.162C46.1043 31.6906 45.5544 31.0206 45.2297 30.2367C44.905 29.4528 44.8201 28.5902 44.9856 27.7581C45.1511 26.9259 45.5597 26.1615 46.1597 25.5615C46.7596 24.9615 47.5241 24.553 48.3562 24.3874C49.1884 24.2219 50.051 24.3069 50.8349 24.6316C51.6188 24.9563 52.2888 25.5061 52.7602 26.2116C53.2316 26.9171 53.4832 27.7465 53.4832 28.595C53.4805 29.732 53.0277 30.8216 52.2237 31.6256C51.4198 32.4295 50.3301 32.8824 49.1932 32.885V32.885ZM49.1932 26.9C48.8579 26.9 48.5302 26.9994 48.2515 27.1857C47.9727 27.3719 47.7555 27.6366 47.6272 27.9463C47.4989 28.2561 47.4653 28.5969 47.5307 28.9257C47.5961 29.2545 47.7576 29.5565 47.9946 29.7935C48.2317 30.0306 48.5337 30.192 48.8625 30.2574C49.1913 30.3228 49.5321 30.2893 49.8418 30.161C50.1515 30.0327 50.4163 29.8154 50.6025 29.5367C50.7888 29.2579 50.8882 28.9302 50.8882 28.595C50.8868 28.1459 50.7078 27.7155 50.3903 27.3979C50.0727 27.0803 49.6423 26.9013 49.1932 26.9" fill="#FEB127"/>
<path d="M50.4912 26.378H47.8912V16.946C47.9136 15.0473 47.559 13.163 46.8479 11.4023C46.1368 9.64162 45.0833 8.03957 43.7486 6.68897C42.4139 5.33838 40.8243 4.26609 39.0722 3.53426C37.32 2.80242 35.44 2.42559 33.5412 2.42559C31.6423 2.42559 29.7624 2.80242 28.0102 3.53426C26.258 4.26609 24.6685 5.33838 23.3338 6.68897C21.999 8.03957 20.9456 9.64162 20.2345 11.4023C19.5234 13.163 19.1688 15.0473 19.1912 16.946V26.327H16.5912V16.946C16.5912 12.4516 18.3766 8.14136 21.5546 4.96337C24.7325 1.78538 29.0428 0 33.5372 0C38.0315 0 42.3418 1.78538 45.5198 4.96337C48.6978 8.14136 50.4832 12.4516 50.4832 16.946L50.4912 26.378Z" fill="#FEB127"/>
<path d="M39.4922 70.212H2.35818V67.612H39.4922C39.837 67.612 40.1676 67.749 40.4114 67.9928C40.6552 68.2366 40.7922 68.5672 40.7922 68.912C40.7922 69.2568 40.6552 69.5874 40.4114 69.8312C40.1676 70.075 39.837 70.212 39.4922 70.212Z" fill="#FEB127"/>
<path d="M47.7332 52.018C45.1182 51.854 45.0542 51.787 45.0542 49.418C45.0542 47.912 45.0342 46.406 45.0602 44.901C45.0339 44.393 45.1148 43.8851 45.2975 43.4104C45.4803 42.9356 45.7608 42.5046 46.121 42.1453C46.4811 41.786 46.9128 41.5065 47.388 41.3249C47.8631 41.1432 48.3712 41.0636 48.8792 41.091C51.8462 41.066 54.8132 41.085 58.1192 41.085C57.6372 40.585 57.3332 40.279 57.0362 39.964C55.3983 38.4202 54.2421 36.4354 53.7072 34.249C53.5442 33.7286 53.5239 33.1739 53.6484 32.6429C53.7729 32.112 54.0377 31.6242 54.4152 31.2305C54.7926 30.8368 55.2688 30.5517 55.7941 30.4049C56.3193 30.2581 56.8743 30.2551 57.4012 30.396C59.6535 30.8596 61.6995 32.0288 63.2422 33.734C64.0962 34.57 64.8422 35.52 65.7372 36.534C66.0112 36.179 66.2792 35.818 66.5602 35.467C68.1255 33.3399 70.2548 31.6932 72.7072 30.713C74.1782 30.176 75.7072 29.969 76.9282 31.225C77.4418 31.7659 77.7613 32.462 77.8364 33.2041C77.9116 33.9462 77.7381 34.6922 77.3432 35.325C76.3022 37.309 74.9822 39.146 73.7562 41.085H78.3482C79.7692 41.085 81.1892 41.063 82.6092 41.091C83.085 41.0766 83.5589 41.157 84.0033 41.3274C84.4478 41.4977 84.854 41.7548 85.1983 42.0835C85.5425 42.4122 85.818 42.8061 86.0087 43.2422C86.1994 43.6784 86.3016 44.1481 86.3092 44.624C86.3752 46.558 86.3302 48.495 86.3252 50.431C86.3529 50.6361 86.3332 50.8448 86.2676 51.0411C86.202 51.2373 86.0922 51.416 85.9467 51.5632C85.8013 51.7104 85.624 51.8222 85.4285 51.8902C85.233 51.9581 85.0246 51.9803 84.8192 51.955C84.4832 51.955 84.1462 52.001 83.6402 52.037V53.593C83.6402 60.691 83.6402 67.789 83.6402 74.887C83.6402 77.109 83.4602 77.287 81.1882 77.287C70.7728 77.287 60.3575 77.287 49.9422 77.287C48.0002 77.287 47.7422 77.017 47.7422 75.02C47.7422 67.836 47.7422 60.652 47.7422 53.468V52.018H47.7332ZM64.2772 52.036H50.5052V74.574H64.2682L64.2772 52.036ZM80.9452 52.062H67.0912V74.548H80.9362L80.9452 52.062ZM64.3092 43.748C59.0492 43.748 53.8612 43.732 48.6752 43.787C48.462 43.8424 48.2665 43.9514 48.1074 44.1037C47.9483 44.256 47.8308 44.4465 47.7662 44.657C47.6662 46.182 47.7232 47.716 47.7232 49.222H64.3092V43.748ZM83.6902 49.257C83.6902 47.918 83.6992 46.681 83.6902 45.444C83.6772 43.976 83.4302 43.72 81.9542 43.718C77.3542 43.7094 72.7565 43.7094 68.1612 43.718C67.7942 43.718 67.4282 43.787 67.0772 43.818V49.251L83.6902 49.257ZM64.2752 40.939C64.3352 37.647 59.3622 32.759 56.4212 33.131C56.1382 36.139 61.1012 41.131 64.2752 40.939ZM74.9992 33.091C71.8132 32.905 66.8482 37.912 67.1482 40.905C70.0752 41.287 75.0882 36.355 74.9962 33.095" fill="#FEB127"/>
<path d="M32.2482 75.144H2.64218L11.8032 19.844H55.2882L56.1552 25.076C56.1731 25.2527 56.2271 25.4238 56.3138 25.5788C56.4004 25.7339 56.5179 25.8695 56.659 25.9773C56.8001 26.0852 56.9618 26.163 57.1341 26.2059C57.3064 26.2489 57.4857 26.2561 57.6609 26.227C57.8361 26.198 58.0035 26.1334 58.1528 26.0372C58.3021 25.941 58.43 25.8152 58.5288 25.6676C58.6276 25.5201 58.6951 25.3538 58.7272 25.1791C58.7592 25.0045 58.7551 24.8251 58.7152 24.652L57.8152 19.203C57.7248 18.6579 57.4442 18.1625 57.0231 17.8047C56.602 17.447 56.0677 17.2501 55.5152 17.249H11.5822C11.0296 17.2501 10.4954 17.447 10.0743 17.8047C9.65319 18.1625 9.37253 18.6579 9.28218 19.203L0.0391792 74.976C-0.0350977 75.3799 -0.0033997 75.7961 0.131179 76.184C0.293745 76.6388 0.59282 77.0323 0.987506 77.3106C1.38219 77.5889 1.85322 77.7386 2.33618 77.739H32.2482C32.593 77.739 32.9236 77.6021 33.1674 77.3583C33.4112 77.1145 33.5482 76.7838 33.5482 76.439C33.5482 76.0942 33.4112 75.7636 33.1674 75.5198C32.9236 75.276 32.593 75.139 32.2482 75.139" fill="#FEB127"/>
</svg>
