<svg width="43" height="43" viewBox="0 0 43 43" fill="none" xmlns="http://www.w3.org/2000/svg">
<path d="M13.1159 41.147C7.51732 37.5526 3.51132 31.947 1.92392 25.486C-6.07008 -4.62701 40.4059 -5.41901 41.6059 14.676C42.2319 25.176 38.4299 34.441 28.8709 32.828C22.2539 31.711 11.2249 14.452 11.2249 14.452" stroke="#FEB127" stroke-width="2" stroke-miterlimit="10" stroke-linecap="round"/>
<path d="M8.10596 18.5639C8.52653 19.2258 9.09046 19.7848 9.75606 20.1995C10.4217 20.6142 11.1719 20.8741 11.9514 20.9599C12.731 21.0458 13.5198 20.9554 14.2597 20.6954C14.9996 20.4355 15.6716 20.0126 16.2262 19.4581C16.7807 18.9036 17.2036 18.2315 17.4635 17.4916C17.7235 16.7517 17.8139 15.9629 17.728 15.1834C17.6422 14.4039 17.3823 13.6536 16.9676 12.988C16.5528 12.3224 15.9939 11.7585 15.332 11.3379" stroke="#FEB127" stroke-width="2" stroke-miterlimit="10" stroke-linecap="round"/>
<path d="M14.1428 32.8281L25.0378 21.9331" stroke="#FEB127" stroke-width="2" stroke-miterlimit="10" stroke-linecap="round"/>
<path d="M31.9383 19.8558C34.4174 17.3768 35.347 14.2871 34.0148 12.9548C32.6825 11.6226 29.5928 12.5522 27.1137 15.0313C24.6347 17.5103 23.705 20.6 25.0373 21.9323C26.3696 23.2646 29.4592 22.3349 31.9383 19.8558Z" stroke="#FEB127" stroke-width="1.9997" stroke-miterlimit="10" stroke-linecap="round"/>
</svg>
