<svg width="124" height="25" viewBox="0 0 124 25" fill="none" xmlns="http://www.w3.org/2000/svg">
<path d="M0 6C3.357 6 3.357 18 6.713 18C10.069 18 10.068 6 13.422 6C16.776 6 16.778 18 20.134 18C23.49 18 23.49 6 26.846 6C30.202 6 30.202 18 33.558 18C36.914 18 36.915 6 40.272 6C43.629 6 43.627 18 46.982 18C50.337 18 50.34 6 53.698 6C57.056 6 57.058 18 60.419 18C63.78 18 63.779 6 67.139 6" stroke="#FEB127" stroke-width="2" stroke-miterlimit="10"/>
<path d="M106.96 17.764C106.96 17.764 114.298 19.324 114.342 12.324C114.372 7.73504 107.642 5.91203 103.989 8.03003C99.332 10.73 97.195 21.794 105.412 22.942C114.747 24.242 122.479 14.165 122.479 11.971C122.479 9.77701 114.837 1 105.412 1C99.243 1 93.855 4.75499 90.857 7.96899L84.869 3.43903C84.6938 3.2942 84.4794 3.20496 84.2531 3.1828C84.0269 3.16064 83.7993 3.20655 83.5993 3.31464C83.3994 3.42272 83.2363 3.5881 83.131 3.78949C83.0256 3.99088 82.9828 4.21912 83.008 4.44501L84.666 11.971L83.0071 19.497C82.9818 19.7229 83.0246 19.9512 83.13 20.1526C83.2353 20.354 83.3984 20.5193 83.5984 20.6274C83.7983 20.7355 84.026 20.7814 84.2522 20.7592C84.4784 20.7371 84.6928 20.6478 84.868 20.503L90.8561 15.974" stroke="#FEB127" stroke-width="2" stroke-miterlimit="10" stroke-linecap="round"/>
</svg>
